<svg xmlns="http://www.w3.org/2000/svg" xmlns:xlink="http://www.w3.org/1999/xlink" width="1080" zoomAndPan="magnify" viewBox="0 0 810 809.999993" height="1080" preserveAspectRatio="xMidYMid meet" version="1.0"><defs><g/></defs><rect x="-81" width="972" fill="#ffffff" y="-80.999999" height="971.999992" fill-opacity="1"/><rect x="-81" width="972" fill="#ff5240" y="-80.999999" height="971.999992" fill-opacity="1"/><g fill="#020301" fill-opacity="1"><g transform="translate(80.999999, 270.209395)"><g><path d="M 53.421875 0 L 4.53125 0 L 4.53125 -40.609375 L 51.1875 -40.609375 L 51.1875 -30.5625 L 21.5625 -30.5625 L 21.5625 -24.1875 L 46.609375 -24.1875 L 46.609375 -16.390625 L 21.5625 -16.390625 L 21.5625 -10.046875 L 53.421875 -10.046875 Z M 53.421875 0 "/></g></g></g><g fill="#020301" fill-opacity="1"><g transform="translate(136.655425, 270.209395)"><g><path d="M 64.765625 0 L 44.515625 0 L 21.5625 -27.484375 L 21.5625 0 L 4.53125 0 L 4.53125 -40.609375 L 24.78125 -40.609375 L 47.734375 -13.265625 L 47.734375 -40.609375 L 64.765625 -40.609375 Z M 64.765625 0 "/></g></g></g><g fill="#020301" fill-opacity="1"><g transform="translate(205.913625, 270.209395)"><g><path d="M 21.5625 0 L 4.53125 0 L 4.53125 -40.609375 L 51.1875 -40.609375 L 51.1875 -30.5625 L 21.5625 -30.5625 L 21.5625 -24.1875 L 46.609375 -24.1875 L 46.609375 -16.390625 L 21.5625 -16.390625 Z M 21.5625 0 "/></g></g></g><g fill="#020301" fill-opacity="1"><g transform="translate(259.334915, 270.209395)"><g><path d="M 21.5625 0 L 4.53125 0 L 4.53125 -40.609375 L 21.5625 -40.609375 Z M 21.5625 0 "/></g></g></g><g fill="#020301" fill-opacity="1"><g transform="translate(285.409256, 270.209395)"><g><path d="M 64.765625 0 L 44.515625 0 L 21.5625 -27.484375 L 21.5625 0 L 4.53125 0 L 4.53125 -40.609375 L 24.78125 -40.609375 L 47.734375 -13.265625 L 47.734375 -40.609375 L 64.765625 -40.609375 Z M 64.765625 0 "/></g></g></g><g fill="#020301" fill-opacity="1"><g transform="translate(354.667456, 270.209395)"><g/></g></g><g fill="#020301" fill-opacity="1"><g transform="translate(369.033795, 270.209395)"><g><path d="M 28.546875 0.875 C 18.648438 0.875 11.679688 -1.179688 7.640625 -5.296875 C 4.242188 -8.742188 2.546875 -13.734375 2.546875 -20.265625 L 2.546875 -40.578125 L 19.578125 -40.578125 L 19.578125 -20.265625 C 19.578125 -17.429688 20.0625 -15.191406 21.03125 -13.546875 C 22.40625 -11.191406 24.910156 -10.015625 28.546875 -10.015625 C 32.222656 -10.015625 34.742188 -11.191406 36.109375 -13.546875 C 37.066406 -15.242188 37.546875 -17.484375 37.546875 -20.265625 L 37.546875 -40.578125 L 54.578125 -40.578125 L 54.578125 -20.03125 C 54.578125 -13.65625 52.890625 -8.742188 49.515625 -5.296875 C 45.460938 -1.179688 38.472656 0.875 28.546875 0.875 Z M 28.546875 0.875 "/></g></g></g><g fill="#020301" fill-opacity="1"><g transform="translate(426.131511, 270.209395)"><g><path d="M 64.765625 0 L 44.515625 0 L 21.5625 -27.484375 L 21.5625 0 L 4.53125 0 L 4.53125 -40.609375 L 24.78125 -40.609375 L 47.734375 -13.265625 L 47.734375 -40.609375 L 64.765625 -40.609375 Z M 64.765625 0 "/></g></g></g><g fill="#020301" fill-opacity="1"><g transform="translate(80.999999, 330.865171)"><g><path d="M 39 0 L 23.171875 0 L 0.421875 -40.578125 L 17.6875 -40.578125 L 31.09375 -11.578125 L 44.484375 -40.578125 L 61.75 -40.578125 Z M 39 0 "/></g></g></g><g fill="#020301" fill-opacity="1"><g transform="translate(143.13159, 330.865171)"><g><path d="M 59.96875 0 L 43.859375 0 C 43.117188 -1.019531 42.597656 -2.320312 42.296875 -3.90625 C 42.035156 -5.132812 41.640625 -6.335938 41.109375 -7.515625 C 40.585938 -8.691406 39.679688 -9.671875 38.390625 -10.453125 C 37.097656 -11.234375 35.175781 -11.65625 32.625 -11.71875 L 21.5625 -11.71875 L 21.5625 0 L 4.53125 0 L 4.53125 -40.609375 L 32.234375 -40.609375 C 38.847656 -40.609375 44.1875 -40.113281 48.25 -39.125 C 52.320312 -38.132812 55.289062 -36.578125 57.15625 -34.453125 C 59.03125 -32.328125 59.96875 -29.554688 59.96875 -26.140625 C 59.96875 -23.296875 59.316406 -20.898438 58.015625 -18.953125 C 56.722656 -17.015625 54.679688 -15.476562 51.890625 -14.34375 C 54.585938 -13.226562 56.335938 -11.894531 57.140625 -10.34375 C 57.941406 -8.789062 58.4375 -7.078125 58.625 -5.203125 C 58.820312 -3.546875 59.269531 -1.8125 59.96875 0 Z M 21.5625 -21.734375 L 31.296875 -21.765625 C 34.015625 -21.765625 36.15625 -21.882812 37.71875 -22.125 C 39.28125 -22.375 40.429688 -22.707031 41.171875 -23.125 C 41.921875 -23.550781 42.398438 -24.023438 42.609375 -24.546875 C 42.816406 -25.066406 42.921875 -25.597656 42.921875 -26.140625 C 42.921875 -26.691406 42.816406 -27.226562 42.609375 -27.75 C 42.398438 -28.28125 41.921875 -28.757812 41.171875 -29.1875 C 40.429688 -29.613281 39.28125 -29.945312 37.71875 -30.1875 C 36.15625 -30.4375 34.015625 -30.5625 31.296875 -30.5625 L 21.5625 -30.5625 Z M 21.5625 -21.734375 "/></g></g></g><g fill="#020301" fill-opacity="1"><g transform="translate(205.319741, 330.865171)"><g><path d="M 68.203125 0 L 50.9375 0 L 47.109375 -6.65625 L 21.5 -6.65625 L 17.6875 0 L 0.421875 0 L 26.40625 -40.578125 L 42.21875 -40.578125 Z M 41.375 -16.703125 L 34.328125 -29 L 27.25 -16.703125 Z M 41.375 -16.703125 "/></g></g></g><g fill="#020301" fill-opacity="1"><g transform="translate(273.899216, 330.865171)"><g><path d="M 21.5625 0 L 4.53125 0 L 4.53125 -40.609375 L 21.5625 -40.609375 Z M 21.5625 0 "/></g></g></g><g fill="#020301" fill-opacity="1"><g transform="translate(299.973557, 330.865171)"><g/></g></g><g fill="#020301" fill-opacity="1"><g transform="translate(314.339896, 330.865171)"><g><path d="M 26.828125 0.875 C 21.335938 0.875 16.910156 0.285156 13.546875 -0.890625 C 10.191406 -2.066406 7.632812 -3.6875 5.875 -5.75 C 4.125 -7.820312 2.945312 -10.207031 2.34375 -12.90625 L 20.4375 -12.90625 C 21.769531 -10.976562 23.898438 -10.015625 26.828125 -10.015625 C 29.753906 -10.015625 31.882812 -10.976562 33.21875 -12.90625 C 33.332031 -13.09375 33.390625 -13.257812 33.390625 -13.40625 C 33.390625 -13.914062 32.710938 -14.296875 31.359375 -14.546875 C 30.015625 -14.804688 28.003906 -15.003906 25.328125 -15.140625 C 21.953125 -15.285156 18.40625 -15.644531 14.6875 -16.21875 C 6.40625 -17.5 2.265625 -20.828125 2.265625 -26.203125 C 2.265625 -26.648438 2.289062 -27.128906 2.34375 -27.640625 C 2.945312 -30.335938 4.125 -32.71875 5.875 -34.78125 C 7.632812 -36.851562 10.191406 -38.476562 13.546875 -39.65625 C 16.910156 -40.832031 21.335938 -41.421875 26.828125 -41.421875 C 32.316406 -41.421875 36.738281 -40.832031 40.09375 -39.65625 C 43.457031 -38.476562 46.015625 -36.851562 47.765625 -34.78125 C 49.515625 -32.71875 50.691406 -30.335938 51.296875 -27.640625 L 33.21875 -27.640625 C 31.882812 -29.566406 29.753906 -30.53125 26.828125 -30.53125 C 23.898438 -30.53125 21.769531 -29.566406 20.4375 -27.640625 C 20.34375 -27.492188 20.296875 -27.351562 20.296875 -27.21875 C 20.296875 -26.769531 20.941406 -26.4375 22.234375 -26.21875 C 23.523438 -26 25.425781 -25.8125 27.9375 -25.65625 C 30.457031 -25.507812 33.140625 -25.265625 35.984375 -24.921875 C 38.835938 -24.585938 41.503906 -24 43.984375 -23.15625 C 46.460938 -22.320312 48.398438 -21.082031 49.796875 -19.4375 C 50.890625 -18.175781 51.4375 -16.570312 51.4375 -14.625 C 51.4375 -14.082031 51.390625 -13.507812 51.296875 -12.90625 C 50.691406 -10.207031 49.515625 -7.820312 47.765625 -5.75 C 46.015625 -3.6875 43.457031 -2.066406 40.09375 -0.890625 C 36.738281 0.285156 32.316406 0.875 26.828125 0.875 Z M 26.828125 0.875 "/></g></g></g><g fill="#020301" fill-opacity="1"><g transform="translate(368.015709, 330.865171)"><g><path d="M 21.5625 0 L 4.53125 0 L 4.53125 -40.609375 L 21.5625 -40.609375 Z M 21.5625 0 "/></g></g></g><g fill="#020301" fill-opacity="1"><g transform="translate(394.090049, 330.865171)"><g><path d="M 34.640625 0 L 17.59375 0 L 17.59375 -30.5625 L 1.703125 -30.5625 L 1.703125 -40.609375 L 50.546875 -40.609375 L 50.546875 -30.5625 L 34.640625 -30.5625 Z M 34.640625 0 "/></g></g></g><g fill="#020301" fill-opacity="1"><g transform="translate(446.295291, 330.865171)"><g><path d="M 53.421875 0 L 4.53125 0 L 4.53125 -40.609375 L 51.1875 -40.609375 L 51.1875 -30.5625 L 21.5625 -30.5625 L 21.5625 -24.1875 L 46.609375 -24.1875 L 46.609375 -16.390625 L 21.5625 -16.390625 L 21.5625 -10.046875 L 53.421875 -10.046875 Z M 53.421875 0 "/></g></g></g><g fill="#020301" fill-opacity="1"><g transform="translate(80.999999, 391.520946)"><g><path d="M 21.5625 0 L 4.53125 0 L 4.53125 -40.609375 L 21.5625 -40.609375 Z M 21.5625 0 "/></g></g></g><g fill="#020301" fill-opacity="1"><g transform="translate(107.07434, 391.520946)"><g><path d="M 64.765625 0 L 44.515625 0 L 21.5625 -27.484375 L 21.5625 0 L 4.53125 0 L 4.53125 -40.609375 L 24.78125 -40.609375 L 47.734375 -13.265625 L 47.734375 -40.609375 L 64.765625 -40.609375 Z M 64.765625 0 "/></g></g></g><g fill="#020301" fill-opacity="1"><g transform="translate(176.33254, 391.520946)"><g><path d="M 34.640625 0 L 17.59375 0 L 17.59375 -30.5625 L 1.703125 -30.5625 L 1.703125 -40.609375 L 50.546875 -40.609375 L 50.546875 -30.5625 L 34.640625 -30.5625 Z M 34.640625 0 "/></g></g></g><g fill="#020301" fill-opacity="1"><g transform="translate(228.537782, 391.520946)"><g><path d="M 53.421875 0 L 4.53125 0 L 4.53125 -40.609375 L 51.1875 -40.609375 L 51.1875 -30.5625 L 21.5625 -30.5625 L 21.5625 -24.1875 L 46.609375 -24.1875 L 46.609375 -16.390625 L 21.5625 -16.390625 L 21.5625 -10.046875 L 53.421875 -10.046875 Z M 53.421875 0 "/></g></g></g><g fill="#020301" fill-opacity="1"><g transform="translate(284.193208, 391.520946)"><g><path d="M 59.96875 0 L 43.859375 0 C 43.117188 -1.019531 42.597656 -2.320312 42.296875 -3.90625 C 42.035156 -5.132812 41.640625 -6.335938 41.109375 -7.515625 C 40.585938 -8.691406 39.679688 -9.671875 38.390625 -10.453125 C 37.097656 -11.234375 35.175781 -11.65625 32.625 -11.71875 L 21.5625 -11.71875 L 21.5625 0 L 4.53125 0 L 4.53125 -40.609375 L 32.234375 -40.609375 C 38.847656 -40.609375 44.1875 -40.113281 48.25 -39.125 C 52.320312 -38.132812 55.289062 -36.578125 57.15625 -34.453125 C 59.03125 -32.328125 59.96875 -29.554688 59.96875 -26.140625 C 59.96875 -23.296875 59.316406 -20.898438 58.015625 -18.953125 C 56.722656 -17.015625 54.679688 -15.476562 51.890625 -14.34375 C 54.585938 -13.226562 56.335938 -11.894531 57.140625 -10.34375 C 57.941406 -8.789062 58.4375 -7.078125 58.625 -5.203125 C 58.820312 -3.546875 59.269531 -1.8125 59.96875 0 Z M 21.5625 -21.734375 L 31.296875 -21.765625 C 34.015625 -21.765625 36.15625 -21.882812 37.71875 -22.125 C 39.28125 -22.375 40.429688 -22.707031 41.171875 -23.125 C 41.921875 -23.550781 42.398438 -24.023438 42.609375 -24.546875 C 42.816406 -25.066406 42.921875 -25.597656 42.921875 -26.140625 C 42.921875 -26.691406 42.816406 -27.226562 42.609375 -27.75 C 42.398438 -28.28125 41.921875 -28.757812 41.171875 -29.1875 C 40.429688 -29.613281 39.28125 -29.945312 37.71875 -30.1875 C 36.15625 -30.4375 34.015625 -30.5625 31.296875 -30.5625 L 21.5625 -30.5625 Z M 21.5625 -21.734375 "/></g></g></g><g fill="#020301" fill-opacity="1"><g transform="translate(346.381358, 391.520946)"><g><path d="M 64.765625 0 L 44.515625 0 L 21.5625 -27.484375 L 21.5625 0 L 4.53125 0 L 4.53125 -40.609375 L 24.78125 -40.609375 L 47.734375 -13.265625 L 47.734375 -40.609375 L 64.765625 -40.609375 Z M 64.765625 0 "/></g></g></g><g fill="#020301" fill-opacity="1"><g transform="translate(415.639558, 391.520946)"><g><path d="M 53.421875 0 L 4.53125 0 L 4.53125 -40.609375 L 51.1875 -40.609375 L 51.1875 -30.5625 L 21.5625 -30.5625 L 21.5625 -24.1875 L 46.609375 -24.1875 L 46.609375 -16.390625 L 21.5625 -16.390625 L 21.5625 -10.046875 L 53.421875 -10.046875 Z M 53.421875 0 "/></g></g></g><g fill="#020301" fill-opacity="1"><g transform="translate(471.294984, 391.520946)"><g><path d="M 34.640625 0 L 17.59375 0 L 17.59375 -30.5625 L 1.703125 -30.5625 L 1.703125 -40.609375 L 50.546875 -40.609375 L 50.546875 -30.5625 L 34.640625 -30.5625 Z M 34.640625 0 "/></g></g></g><g fill="#020301" fill-opacity="1"><g transform="translate(80.999999, 452.176722)"><g><path d="M 21.5625 0 L 4.53125 0 L 4.53125 -40.609375 L 32.234375 -40.609375 C 38.847656 -40.609375 44.1875 -40.113281 48.25 -39.125 C 52.320312 -38.132812 55.289062 -36.578125 57.15625 -34.453125 C 59.03125 -32.328125 59.96875 -29.554688 59.96875 -26.140625 C 59.96875 -22.742188 59.03125 -19.984375 57.15625 -17.859375 C 55.289062 -15.742188 52.320312 -14.191406 48.25 -13.203125 C 44.1875 -12.210938 38.847656 -11.71875 32.234375 -11.71875 L 21.5625 -11.71875 Z M 21.5625 -21.734375 L 31.296875 -21.765625 C 34.015625 -21.765625 36.15625 -21.867188 37.71875 -22.078125 C 39.28125 -22.296875 40.429688 -22.601562 41.171875 -23 C 41.921875 -23.394531 42.398438 -23.863281 42.609375 -24.40625 C 42.816406 -24.945312 42.921875 -25.523438 42.921875 -26.140625 C 42.921875 -26.785156 42.816406 -27.375 42.609375 -27.90625 C 42.398438 -28.445312 41.921875 -28.914062 41.171875 -29.3125 C 40.429688 -29.707031 39.28125 -30.015625 37.71875 -30.234375 C 36.15625 -30.453125 34.015625 -30.5625 31.296875 -30.5625 L 21.5625 -30.5625 Z M 21.5625 -21.734375 "/></g></g></g><g fill="#020301" fill-opacity="1"><g transform="translate(143.18815, 452.176722)"><g><path d="M 30.703125 0.875 C 20.671875 0.875 13.285156 -1.1875 8.546875 -5.3125 C 4.359375 -8.976562 2.265625 -13.972656 2.265625 -20.296875 C 2.265625 -26.585938 4.359375 -31.566406 8.546875 -35.234375 C 13.285156 -39.359375 20.671875 -41.421875 30.703125 -41.421875 C 40.734375 -41.421875 48.117188 -39.359375 52.859375 -35.234375 C 57.046875 -31.566406 59.140625 -26.585938 59.140625 -20.296875 C 59.140625 -13.972656 57.046875 -8.976562 52.859375 -5.3125 C 48.117188 -1.1875 40.734375 0.875 30.703125 0.875 Z M 30.703125 -10.015625 C 34.816406 -10.015625 37.835938 -11.191406 39.765625 -13.546875 C 41.304688 -15.453125 42.078125 -17.703125 42.078125 -20.296875 C 42.078125 -22.878906 41.304688 -25.113281 39.765625 -27 C 37.835938 -29.375 34.816406 -30.5625 30.703125 -30.5625 C 26.585938 -30.5625 23.5625 -29.375 21.625 -27 C 20.070312 -25.113281 19.296875 -22.878906 19.296875 -20.296875 C 19.296875 -17.703125 20.070312 -15.453125 21.625 -13.546875 C 23.5625 -11.191406 26.585938 -10.015625 30.703125 -10.015625 Z M 30.703125 -10.015625 "/></g></g></g><g fill="#020301" fill-opacity="1"><g transform="translate(204.556176, 452.176722)"><g><path d="M 28.546875 0.875 C 18.648438 0.875 11.679688 -1.179688 7.640625 -5.296875 C 4.242188 -8.742188 2.546875 -13.734375 2.546875 -20.265625 L 2.546875 -40.578125 L 19.578125 -40.578125 L 19.578125 -20.265625 C 19.578125 -17.429688 20.0625 -15.191406 21.03125 -13.546875 C 22.40625 -11.191406 24.910156 -10.015625 28.546875 -10.015625 C 32.222656 -10.015625 34.742188 -11.191406 36.109375 -13.546875 C 37.066406 -15.242188 37.546875 -17.484375 37.546875 -20.265625 L 37.546875 -40.578125 L 54.578125 -40.578125 L 54.578125 -20.03125 C 54.578125 -13.65625 52.890625 -8.742188 49.515625 -5.296875 C 45.460938 -1.179688 38.472656 0.875 28.546875 0.875 Z M 28.546875 0.875 "/></g></g></g><g fill="#020301" fill-opacity="1"><g transform="translate(261.653891, 452.176722)"><g><path d="M 59.96875 0 L 43.859375 0 C 43.117188 -1.019531 42.597656 -2.320312 42.296875 -3.90625 C 42.035156 -5.132812 41.640625 -6.335938 41.109375 -7.515625 C 40.585938 -8.691406 39.679688 -9.671875 38.390625 -10.453125 C 37.097656 -11.234375 35.175781 -11.65625 32.625 -11.71875 L 21.5625 -11.71875 L 21.5625 0 L 4.53125 0 L 4.53125 -40.609375 L 32.234375 -40.609375 C 38.847656 -40.609375 44.1875 -40.113281 48.25 -39.125 C 52.320312 -38.132812 55.289062 -36.578125 57.15625 -34.453125 C 59.03125 -32.328125 59.96875 -29.554688 59.96875 -26.140625 C 59.96875 -23.296875 59.316406 -20.898438 58.015625 -18.953125 C 56.722656 -17.015625 54.679688 -15.476562 51.890625 -14.34375 C 54.585938 -13.226562 56.335938 -11.894531 57.140625 -10.34375 C 57.941406 -8.789062 58.4375 -7.078125 58.625 -5.203125 C 58.820312 -3.546875 59.269531 -1.8125 59.96875 0 Z M 21.5625 -21.734375 L 31.296875 -21.765625 C 34.015625 -21.765625 36.15625 -21.882812 37.71875 -22.125 C 39.28125 -22.375 40.429688 -22.707031 41.171875 -23.125 C 41.921875 -23.550781 42.398438 -24.023438 42.609375 -24.546875 C 42.816406 -25.066406 42.921875 -25.597656 42.921875 -26.140625 C 42.921875 -26.691406 42.816406 -27.226562 42.609375 -27.75 C 42.398438 -28.28125 41.921875 -28.757812 41.171875 -29.1875 C 40.429688 -29.613281 39.28125 -29.945312 37.71875 -30.1875 C 36.15625 -30.4375 34.015625 -30.5625 31.296875 -30.5625 L 21.5625 -30.5625 Z M 21.5625 -21.734375 "/></g></g></g><g fill="#020301" fill-opacity="1"><g transform="translate(323.842042, 452.176722)"><g/></g></g><g fill="#020301" fill-opacity="1"><g transform="translate(338.208381, 452.176722)"><g><path d="M 53.421875 0 L 4.53125 0 L 4.53125 -40.609375 L 51.1875 -40.609375 L 51.1875 -30.5625 L 21.5625 -30.5625 L 21.5625 -24.1875 L 46.609375 -24.1875 L 46.609375 -16.390625 L 21.5625 -16.390625 L 21.5625 -10.046875 L 53.421875 -10.046875 Z M 41.0625 -44.25 L 32.859375 -44.25 L 28.984375 -48.53125 L 25.125 -44.25 L 16.890625 -44.25 L 25.46875 -54.328125 L 32.515625 -54.328125 Z M 41.0625 -44.25 "/></g></g></g><g fill="#020301" fill-opacity="1"><g transform="translate(393.863807, 452.176722)"><g><path d="M 34.640625 0 L 17.59375 0 L 17.59375 -30.5625 L 1.703125 -30.5625 L 1.703125 -40.609375 L 50.546875 -40.609375 L 50.546875 -30.5625 L 34.640625 -30.5625 Z M 34.640625 0 "/></g></g></g><g fill="#020301" fill-opacity="1"><g transform="translate(446.069049, 452.176722)"><g><path d="M 59.96875 0 L 43.859375 0 C 43.117188 -1.019531 42.597656 -2.320312 42.296875 -3.90625 C 42.035156 -5.132812 41.640625 -6.335938 41.109375 -7.515625 C 40.585938 -8.691406 39.679688 -9.671875 38.390625 -10.453125 C 37.097656 -11.234375 35.175781 -11.65625 32.625 -11.71875 L 21.5625 -11.71875 L 21.5625 0 L 4.53125 0 L 4.53125 -40.609375 L 32.234375 -40.609375 C 38.847656 -40.609375 44.1875 -40.113281 48.25 -39.125 C 52.320312 -38.132812 55.289062 -36.578125 57.15625 -34.453125 C 59.03125 -32.328125 59.96875 -29.554688 59.96875 -26.140625 C 59.96875 -23.296875 59.316406 -20.898438 58.015625 -18.953125 C 56.722656 -17.015625 54.679688 -15.476562 51.890625 -14.34375 C 54.585938 -13.226562 56.335938 -11.894531 57.140625 -10.34375 C 57.941406 -8.789062 58.4375 -7.078125 58.625 -5.203125 C 58.820312 -3.546875 59.269531 -1.8125 59.96875 0 Z M 21.5625 -21.734375 L 31.296875 -21.765625 C 34.015625 -21.765625 36.15625 -21.882812 37.71875 -22.125 C 39.28125 -22.375 40.429688 -22.707031 41.171875 -23.125 C 41.921875 -23.550781 42.398438 -24.023438 42.609375 -24.546875 C 42.816406 -25.066406 42.921875 -25.597656 42.921875 -26.140625 C 42.921875 -26.691406 42.816406 -27.226562 42.609375 -27.75 C 42.398438 -28.28125 41.921875 -28.757812 41.171875 -29.1875 C 40.429688 -29.613281 39.28125 -29.945312 37.71875 -30.1875 C 36.15625 -30.4375 34.015625 -30.5625 31.296875 -30.5625 L 21.5625 -30.5625 Z M 21.5625 -21.734375 "/></g></g></g><g fill="#020301" fill-opacity="1"><g transform="translate(508.257199, 452.176722)"><g><path d="M 53.421875 0 L 4.53125 0 L 4.53125 -40.609375 L 51.1875 -40.609375 L 51.1875 -30.5625 L 21.5625 -30.5625 L 21.5625 -24.1875 L 46.609375 -24.1875 L 46.609375 -16.390625 L 21.5625 -16.390625 L 21.5625 -10.046875 L 53.421875 -10.046875 Z M 53.421875 0 "/></g></g></g><g fill="#020301" fill-opacity="1"><g transform="translate(80.999999, 512.832497)"><g><path d="M 59.96875 0 L 43.859375 0 C 43.117188 -1.019531 42.597656 -2.320312 42.296875 -3.90625 C 42.035156 -5.132812 41.640625 -6.335938 41.109375 -7.515625 C 40.585938 -8.691406 39.679688 -9.671875 38.390625 -10.453125 C 37.097656 -11.234375 35.175781 -11.65625 32.625 -11.71875 L 21.5625 -11.71875 L 21.5625 0 L 4.53125 0 L 4.53125 -40.609375 L 32.234375 -40.609375 C 38.847656 -40.609375 44.1875 -40.113281 48.25 -39.125 C 52.320312 -38.132812 55.289062 -36.578125 57.15625 -34.453125 C 59.03125 -32.328125 59.96875 -29.554688 59.96875 -26.140625 C 59.96875 -23.296875 59.316406 -20.898438 58.015625 -18.953125 C 56.722656 -17.015625 54.679688 -15.476562 51.890625 -14.34375 C 54.585938 -13.226562 56.335938 -11.894531 57.140625 -10.34375 C 57.941406 -8.789062 58.4375 -7.078125 58.625 -5.203125 C 58.820312 -3.546875 59.269531 -1.8125 59.96875 0 Z M 21.5625 -21.734375 L 31.296875 -21.765625 C 34.015625 -21.765625 36.15625 -21.882812 37.71875 -22.125 C 39.28125 -22.375 40.429688 -22.707031 41.171875 -23.125 C 41.921875 -23.550781 42.398438 -24.023438 42.609375 -24.546875 C 42.816406 -25.066406 42.921875 -25.597656 42.921875 -26.140625 C 42.921875 -26.691406 42.816406 -27.226562 42.609375 -27.75 C 42.398438 -28.28125 41.921875 -28.757812 41.171875 -29.1875 C 40.429688 -29.613281 39.28125 -29.945312 37.71875 -30.1875 C 36.15625 -30.4375 34.015625 -30.5625 31.296875 -30.5625 L 21.5625 -30.5625 Z M 21.5625 -21.734375 "/></g></g></g><g fill="#020301" fill-opacity="1"><g transform="translate(143.18815, 512.832497)"><g><path d="M 53.421875 0 L 4.53125 0 L 4.53125 -40.609375 L 51.1875 -40.609375 L 51.1875 -30.5625 L 21.5625 -30.5625 L 21.5625 -24.1875 L 46.609375 -24.1875 L 46.609375 -16.390625 L 21.5625 -16.390625 L 21.5625 -10.046875 L 53.421875 -10.046875 Z M 32.546875 -44.25 L 25.40625 -44.25 L 29.125 -54.328125 L 40.96875 -54.328125 Z M 32.546875 -44.25 "/></g></g></g><g fill="#020301" fill-opacity="1"><g transform="translate(198.843576, 512.832497)"><g><path d="M 21.5625 0 L 4.53125 0 L 4.53125 -40.609375 L 51.1875 -40.609375 L 51.1875 -30.5625 L 21.5625 -30.5625 L 21.5625 -24.1875 L 46.609375 -24.1875 L 46.609375 -16.390625 L 21.5625 -16.390625 Z M 21.5625 0 "/></g></g></g><g fill="#020301" fill-opacity="1"><g transform="translate(252.264865, 512.832497)"><g><path d="M 53.421875 0 L 4.53125 0 L 4.53125 -40.609375 L 51.1875 -40.609375 L 51.1875 -30.5625 L 21.5625 -30.5625 L 21.5625 -24.1875 L 46.609375 -24.1875 L 46.609375 -16.390625 L 21.5625 -16.390625 L 21.5625 -10.046875 L 53.421875 -10.046875 Z M 32.546875 -44.25 L 25.40625 -44.25 L 29.125 -54.328125 L 40.96875 -54.328125 Z M 32.546875 -44.25 "/></g></g></g><g fill="#020301" fill-opacity="1"><g transform="translate(307.920291, 512.832497)"><g><path d="M 59.96875 0 L 43.859375 0 C 43.117188 -1.019531 42.597656 -2.320312 42.296875 -3.90625 C 42.035156 -5.132812 41.640625 -6.335938 41.109375 -7.515625 C 40.585938 -8.691406 39.679688 -9.671875 38.390625 -10.453125 C 37.097656 -11.234375 35.175781 -11.65625 32.625 -11.71875 L 21.5625 -11.71875 L 21.5625 0 L 4.53125 0 L 4.53125 -40.609375 L 32.234375 -40.609375 C 38.847656 -40.609375 44.1875 -40.113281 48.25 -39.125 C 52.320312 -38.132812 55.289062 -36.578125 57.15625 -34.453125 C 59.03125 -32.328125 59.96875 -29.554688 59.96875 -26.140625 C 59.96875 -23.296875 59.316406 -20.898438 58.015625 -18.953125 C 56.722656 -17.015625 54.679688 -15.476562 51.890625 -14.34375 C 54.585938 -13.226562 56.335938 -11.894531 57.140625 -10.34375 C 57.941406 -8.789062 58.4375 -7.078125 58.625 -5.203125 C 58.820312 -3.546875 59.269531 -1.8125 59.96875 0 Z M 21.5625 -21.734375 L 31.296875 -21.765625 C 34.015625 -21.765625 36.15625 -21.882812 37.71875 -22.125 C 39.28125 -22.375 40.429688 -22.707031 41.171875 -23.125 C 41.921875 -23.550781 42.398438 -24.023438 42.609375 -24.546875 C 42.816406 -25.066406 42.921875 -25.597656 42.921875 -26.140625 C 42.921875 -26.691406 42.816406 -27.226562 42.609375 -27.75 C 42.398438 -28.28125 41.921875 -28.757812 41.171875 -29.1875 C 40.429688 -29.613281 39.28125 -29.945312 37.71875 -30.1875 C 36.15625 -30.4375 34.015625 -30.5625 31.296875 -30.5625 L 21.5625 -30.5625 Z M 21.5625 -21.734375 "/></g></g></g><g fill="#020301" fill-opacity="1"><g transform="translate(370.108441, 512.832497)"><g><path d="M 53.421875 0 L 4.53125 0 L 4.53125 -40.609375 L 51.1875 -40.609375 L 51.1875 -30.5625 L 21.5625 -30.5625 L 21.5625 -24.1875 L 46.609375 -24.1875 L 46.609375 -16.390625 L 21.5625 -16.390625 L 21.5625 -10.046875 L 53.421875 -10.046875 Z M 53.421875 0 "/></g></g></g><g fill="#020301" fill-opacity="1"><g transform="translate(425.763867, 512.832497)"><g><path d="M 64.765625 0 L 44.515625 0 L 21.5625 -27.484375 L 21.5625 0 L 4.53125 0 L 4.53125 -40.609375 L 24.78125 -40.609375 L 47.734375 -13.265625 L 47.734375 -40.609375 L 64.765625 -40.609375 Z M 64.765625 0 "/></g></g></g><g fill="#020301" fill-opacity="1"><g transform="translate(495.022067, 512.832497)"><g><path d="M 30.703125 0.875 C 20.671875 0.875 13.285156 -1.1875 8.546875 -5.3125 C 4.359375 -8.957031 2.265625 -13.941406 2.265625 -20.265625 C 2.265625 -26.578125 4.359375 -31.566406 8.546875 -35.234375 C 13.285156 -39.347656 20.671875 -41.40625 30.703125 -41.40625 C 36.585938 -41.40625 41.453125 -40.726562 45.296875 -39.375 C 49.148438 -38.03125 52.140625 -36.1875 54.265625 -33.84375 C 56.398438 -31.5 57.816406 -28.820312 58.515625 -25.8125 L 40.609375 -25.8125 C 38.816406 -28.957031 35.515625 -30.53125 30.703125 -30.53125 C 26.585938 -30.53125 23.5625 -29.34375 21.625 -26.96875 C 20.070312 -25.082031 19.296875 -22.847656 19.296875 -20.265625 C 19.296875 -17.679688 20.070312 -15.441406 21.625 -13.546875 C 23.5625 -11.171875 26.585938 -9.984375 30.703125 -9.984375 C 35.515625 -9.984375 38.816406 -11.570312 40.609375 -14.75 L 58.515625 -14.75 C 57.816406 -11.707031 56.398438 -9.015625 54.265625 -6.671875 C 52.140625 -4.335938 49.148438 -2.492188 45.296875 -1.140625 C 41.453125 0.203125 36.585938 0.875 30.703125 0.875 Z M 30.703125 0.875 "/></g></g></g><g fill="#020301" fill-opacity="1"><g transform="translate(555.767928, 512.832497)"><g><path d="M 53.421875 0 L 4.53125 0 L 4.53125 -40.609375 L 51.1875 -40.609375 L 51.1875 -30.5625 L 21.5625 -30.5625 L 21.5625 -24.1875 L 46.609375 -24.1875 L 46.609375 -16.390625 L 21.5625 -16.390625 L 21.5625 -10.046875 L 53.421875 -10.046875 Z M 32.546875 -44.25 L 25.40625 -44.25 L 29.125 -54.328125 L 40.96875 -54.328125 Z M 32.546875 -44.25 "/></g></g></g><g fill="#020301" fill-opacity="1"><g transform="translate(80.999999, 573.488273)"><g><path d="M 26.828125 0.875 C 21.335938 0.875 16.910156 0.285156 13.546875 -0.890625 C 10.191406 -2.066406 7.632812 -3.6875 5.875 -5.75 C 4.125 -7.820312 2.945312 -10.207031 2.34375 -12.90625 L 20.4375 -12.90625 C 21.769531 -10.976562 23.898438 -10.015625 26.828125 -10.015625 C 29.753906 -10.015625 31.882812 -10.976562 33.21875 -12.90625 C 33.332031 -13.09375 33.390625 -13.257812 33.390625 -13.40625 C 33.390625 -13.914062 32.710938 -14.296875 31.359375 -14.546875 C 30.015625 -14.804688 28.003906 -15.003906 25.328125 -15.140625 C 21.953125 -15.285156 18.40625 -15.644531 14.6875 -16.21875 C 6.40625 -17.5 2.265625 -20.828125 2.265625 -26.203125 C 2.265625 -26.648438 2.289062 -27.128906 2.34375 -27.640625 C 2.945312 -30.335938 4.125 -32.71875 5.875 -34.78125 C 7.632812 -36.851562 10.191406 -38.476562 13.546875 -39.65625 C 16.910156 -40.832031 21.335938 -41.421875 26.828125 -41.421875 C 32.316406 -41.421875 36.738281 -40.832031 40.09375 -39.65625 C 43.457031 -38.476562 46.015625 -36.851562 47.765625 -34.78125 C 49.515625 -32.71875 50.691406 -30.335938 51.296875 -27.640625 L 33.21875 -27.640625 C 31.882812 -29.566406 29.753906 -30.53125 26.828125 -30.53125 C 23.898438 -30.53125 21.769531 -29.566406 20.4375 -27.640625 C 20.34375 -27.492188 20.296875 -27.351562 20.296875 -27.21875 C 20.296875 -26.769531 20.941406 -26.4375 22.234375 -26.21875 C 23.523438 -26 25.425781 -25.8125 27.9375 -25.65625 C 30.457031 -25.507812 33.140625 -25.265625 35.984375 -24.921875 C 38.835938 -24.585938 41.503906 -24 43.984375 -23.15625 C 46.460938 -22.320312 48.398438 -21.082031 49.796875 -19.4375 C 50.890625 -18.175781 51.4375 -16.570312 51.4375 -14.625 C 51.4375 -14.082031 51.390625 -13.507812 51.296875 -12.90625 C 50.691406 -10.207031 49.515625 -7.820312 47.765625 -5.75 C 46.015625 -3.6875 43.457031 -2.066406 40.09375 -0.890625 C 36.738281 0.285156 32.316406 0.875 26.828125 0.875 Z M 26.828125 0.875 "/></g></g></g><g fill="#020301" fill-opacity="1"><g transform="translate(134.675812, 573.488273)"><g><path d="M 28.546875 0.875 C 18.648438 0.875 11.679688 -1.179688 7.640625 -5.296875 C 4.242188 -8.742188 2.546875 -13.734375 2.546875 -20.265625 L 2.546875 -40.578125 L 19.578125 -40.578125 L 19.578125 -20.265625 C 19.578125 -17.429688 20.0625 -15.191406 21.03125 -13.546875 C 22.40625 -11.191406 24.910156 -10.015625 28.546875 -10.015625 C 32.222656 -10.015625 34.742188 -11.191406 36.109375 -13.546875 C 37.066406 -15.242188 37.546875 -17.484375 37.546875 -20.265625 L 37.546875 -40.578125 L 54.578125 -40.578125 L 54.578125 -20.03125 C 54.578125 -13.65625 52.890625 -8.742188 49.515625 -5.296875 C 45.460938 -1.179688 38.472656 0.875 28.546875 0.875 Z M 28.546875 0.875 "/></g></g></g><g fill="#020301" fill-opacity="1"><g transform="translate(191.773528, 573.488273)"><g><path d="M 59.96875 0 L 43.859375 0 C 43.117188 -1.019531 42.597656 -2.320312 42.296875 -3.90625 C 42.035156 -5.132812 41.640625 -6.335938 41.109375 -7.515625 C 40.585938 -8.691406 39.679688 -9.671875 38.390625 -10.453125 C 37.097656 -11.234375 35.175781 -11.65625 32.625 -11.71875 L 21.5625 -11.71875 L 21.5625 0 L 4.53125 0 L 4.53125 -40.609375 L 32.234375 -40.609375 C 38.847656 -40.609375 44.1875 -40.113281 48.25 -39.125 C 52.320312 -38.132812 55.289062 -36.578125 57.15625 -34.453125 C 59.03125 -32.328125 59.96875 -29.554688 59.96875 -26.140625 C 59.96875 -23.296875 59.316406 -20.898438 58.015625 -18.953125 C 56.722656 -17.015625 54.679688 -15.476562 51.890625 -14.34375 C 54.585938 -13.226562 56.335938 -11.894531 57.140625 -10.34375 C 57.941406 -8.789062 58.4375 -7.078125 58.625 -5.203125 C 58.820312 -3.546875 59.269531 -1.8125 59.96875 0 Z M 21.5625 -21.734375 L 31.296875 -21.765625 C 34.015625 -21.765625 36.15625 -21.882812 37.71875 -22.125 C 39.28125 -22.375 40.429688 -22.707031 41.171875 -23.125 C 41.921875 -23.550781 42.398438 -24.023438 42.609375 -24.546875 C 42.816406 -25.066406 42.921875 -25.597656 42.921875 -26.140625 C 42.921875 -26.691406 42.816406 -27.226562 42.609375 -27.75 C 42.398438 -28.28125 41.921875 -28.757812 41.171875 -29.1875 C 40.429688 -29.613281 39.28125 -29.945312 37.71875 -30.1875 C 36.15625 -30.4375 34.015625 -30.5625 31.296875 -30.5625 L 21.5625 -30.5625 Z M 21.5625 -21.734375 "/></g></g></g><g fill="#020301" fill-opacity="1"><g transform="translate(253.961678, 573.488273)"><g/></g></g><g fill="#020301" fill-opacity="1"><g transform="translate(268.328018, 573.488273)"><g><path d="M 30.703125 0.875 C 20.671875 0.875 13.285156 -1.1875 8.546875 -5.3125 C 4.359375 -8.976562 2.265625 -13.960938 2.265625 -20.265625 C 2.265625 -26.578125 4.359375 -31.566406 8.546875 -35.234375 C 13.285156 -39.359375 20.671875 -41.421875 30.703125 -41.421875 C 36.421875 -41.421875 41.175781 -40.78125 44.96875 -39.5 C 48.757812 -38.21875 51.734375 -36.46875 53.890625 -34.25 C 56.046875 -32.03125 57.523438 -29.476562 58.328125 -26.59375 L 40.09375 -26.59375 C 38.1875 -29.21875 35.054688 -30.53125 30.703125 -30.53125 C 26.585938 -30.53125 23.5625 -29.351562 21.625 -27 C 20.070312 -25.09375 19.296875 -22.847656 19.296875 -20.265625 C 19.296875 -17.679688 20.070312 -15.441406 21.625 -13.546875 C 23.5625 -11.191406 26.585938 -10.015625 30.703125 -10.015625 C 34.023438 -10.015625 36.519531 -10.300781 38.1875 -10.875 C 39.851562 -11.457031 41.078125 -12.207031 41.859375 -13.125 L 35.203125 -13.125 L 35.203125 -20.265625 L 58.328125 -20.265625 L 58.328125 0.03125 L 51.25 0.03125 L 49.796875 -3.90625 C 45.296875 -0.71875 38.929688 0.875 30.703125 0.875 Z M 30.703125 0.875 "/></g></g></g><g fill="#020301" fill-opacity="1"><g transform="translate(330.007125, 573.488273)"><g><path d="M 30.703125 0.875 C 20.671875 0.875 13.285156 -1.1875 8.546875 -5.3125 C 4.359375 -8.976562 2.265625 -13.972656 2.265625 -20.296875 C 2.265625 -26.585938 4.359375 -31.566406 8.546875 -35.234375 C 13.285156 -39.359375 20.671875 -41.421875 30.703125 -41.421875 C 40.734375 -41.421875 48.117188 -39.359375 52.859375 -35.234375 C 57.046875 -31.566406 59.140625 -26.585938 59.140625 -20.296875 C 59.140625 -13.972656 57.046875 -8.976562 52.859375 -5.3125 C 48.117188 -1.1875 40.734375 0.875 30.703125 0.875 Z M 30.703125 -10.015625 C 34.816406 -10.015625 37.835938 -11.191406 39.765625 -13.546875 C 41.304688 -15.453125 42.078125 -17.703125 42.078125 -20.296875 C 42.078125 -22.878906 41.304688 -25.113281 39.765625 -27 C 37.835938 -29.375 34.816406 -30.5625 30.703125 -30.5625 C 26.585938 -30.5625 23.5625 -29.375 21.625 -27 C 20.070312 -25.113281 19.296875 -22.878906 19.296875 -20.296875 C 19.296875 -17.703125 20.070312 -15.453125 21.625 -13.546875 C 23.5625 -11.191406 26.585938 -10.015625 30.703125 -10.015625 Z M 30.703125 -10.015625 "/></g></g></g><g fill="#020301" fill-opacity="1"><g transform="translate(391.37515, 573.488273)"><g><path d="M 30.703125 0.875 C 20.671875 0.875 13.285156 -1.1875 8.546875 -5.3125 C 4.359375 -8.976562 2.265625 -13.972656 2.265625 -20.296875 C 2.265625 -26.585938 4.359375 -31.566406 8.546875 -35.234375 C 13.285156 -39.359375 20.671875 -41.421875 30.703125 -41.421875 C 40.734375 -41.421875 48.117188 -39.359375 52.859375 -35.234375 C 57.046875 -31.566406 59.140625 -26.585938 59.140625 -20.296875 C 59.140625 -13.972656 57.046875 -8.976562 52.859375 -5.3125 C 48.117188 -1.1875 40.734375 0.875 30.703125 0.875 Z M 30.703125 -10.015625 C 34.816406 -10.015625 37.835938 -11.191406 39.765625 -13.546875 C 41.304688 -15.453125 42.078125 -17.703125 42.078125 -20.296875 C 42.078125 -22.878906 41.304688 -25.113281 39.765625 -27 C 37.835938 -29.375 34.816406 -30.5625 30.703125 -30.5625 C 26.585938 -30.5625 23.5625 -29.375 21.625 -27 C 20.070312 -25.113281 19.296875 -22.878906 19.296875 -20.296875 C 19.296875 -17.703125 20.070312 -15.453125 21.625 -13.546875 C 23.5625 -11.191406 26.585938 -10.015625 30.703125 -10.015625 Z M 30.703125 -10.015625 "/></g></g></g><g fill="#020301" fill-opacity="1"><g transform="translate(452.743176, 573.488273)"><g><path d="M 30.703125 0.875 C 20.671875 0.875 13.285156 -1.1875 8.546875 -5.3125 C 4.359375 -8.976562 2.265625 -13.960938 2.265625 -20.265625 C 2.265625 -26.578125 4.359375 -31.566406 8.546875 -35.234375 C 13.285156 -39.359375 20.671875 -41.421875 30.703125 -41.421875 C 36.421875 -41.421875 41.175781 -40.78125 44.96875 -39.5 C 48.757812 -38.21875 51.734375 -36.46875 53.890625 -34.25 C 56.046875 -32.03125 57.523438 -29.476562 58.328125 -26.59375 L 40.09375 -26.59375 C 38.1875 -29.21875 35.054688 -30.53125 30.703125 -30.53125 C 26.585938 -30.53125 23.5625 -29.351562 21.625 -27 C 20.070312 -25.09375 19.296875 -22.847656 19.296875 -20.265625 C 19.296875 -17.679688 20.070312 -15.441406 21.625 -13.546875 C 23.5625 -11.191406 26.585938 -10.015625 30.703125 -10.015625 C 34.023438 -10.015625 36.519531 -10.300781 38.1875 -10.875 C 39.851562 -11.457031 41.078125 -12.207031 41.859375 -13.125 L 35.203125 -13.125 L 35.203125 -20.265625 L 58.328125 -20.265625 L 58.328125 0.03125 L 51.25 0.03125 L 49.796875 -3.90625 C 45.296875 -0.71875 38.929688 0.875 30.703125 0.875 Z M 30.703125 0.875 "/></g></g></g><g fill="#020301" fill-opacity="1"><g transform="translate(514.422283, 573.488273)"><g><path d="M 51.921875 0 L 4.53125 0 L 4.53125 -40.609375 L 21.5625 -40.609375 L 21.5625 -10.046875 L 51.921875 -10.046875 Z M 51.921875 0 "/></g></g></g><g fill="#020301" fill-opacity="1"><g transform="translate(567.44765, 573.488273)"><g><path d="M 53.421875 0 L 4.53125 0 L 4.53125 -40.609375 L 51.1875 -40.609375 L 51.1875 -30.5625 L 21.5625 -30.5625 L 21.5625 -24.1875 L 46.609375 -24.1875 L 46.609375 -16.390625 L 21.5625 -16.390625 L 21.5625 -10.046875 L 53.421875 -10.046875 Z M 53.421875 0 "/></g></g></g></svg>