<svg xmlns="http://www.w3.org/2000/svg" xmlns:xlink="http://www.w3.org/1999/xlink" width="500" zoomAndPan="magnify" viewBox="0 0 375 374.999991" height="500" preserveAspectRatio="xMidYMid meet" version="1.0"><defs><g/></defs><g fill="#999999" fill-opacity="1"><g transform="translate(117.757182, 209.147435)"><g><path d="M 20.890625 0.5 C 17.273438 0.5 14.03125 -0.242188 11.15625 -1.734375 C 8.289062 -3.222656 6.050781 -5.285156 4.4375 -7.921875 C 2.820312 -10.566406 2.015625 -13.566406 2.015625 -16.921875 C 2.015625 -20.273438 2.820312 -23.269531 4.4375 -25.90625 C 6.050781 -28.550781 8.289062 -30.617188 11.15625 -32.109375 C 14.03125 -33.597656 17.273438 -34.34375 20.890625 -34.34375 C 24.453125 -34.34375 27.5625 -33.597656 30.21875 -32.109375 C 32.882812 -30.617188 34.828125 -28.492188 36.046875 -25.734375 L 28.4375 -21.640625 C 26.675781 -24.742188 24.140625 -26.296875 20.828125 -26.296875 C 18.265625 -26.296875 16.144531 -25.457031 14.46875 -23.78125 C 12.789062 -22.101562 11.953125 -19.816406 11.953125 -16.921875 C 11.953125 -14.023438 12.789062 -11.738281 14.46875 -10.0625 C 16.144531 -8.382812 18.265625 -7.546875 20.828125 -7.546875 C 24.179688 -7.546875 26.71875 -9.097656 28.4375 -12.203125 L 36.046875 -8.046875 C 34.828125 -5.367188 32.882812 -3.273438 30.21875 -1.765625 C 27.5625 -0.253906 24.453125 0.5 20.890625 0.5 Z M 20.890625 0.5 "/></g></g></g><g fill="#999999" fill-opacity="1"><g transform="translate(149.590228, 209.147435)"><g><path d="M 15.921875 0.5 C 13.109375 0.5 10.359375 0.15625 7.671875 -0.53125 C 4.992188 -1.226562 2.859375 -2.097656 1.265625 -3.140625 L 4.53125 -10.1875 C 6.039062 -9.226562 7.863281 -8.441406 10 -7.828125 C 12.132812 -7.222656 14.234375 -6.921875 16.296875 -6.921875 C 20.441406 -6.921875 22.515625 -7.945312 22.515625 -10 C 22.515625 -10.96875 21.945312 -11.660156 20.8125 -12.078125 C 19.6875 -12.492188 17.945312 -12.847656 15.59375 -13.140625 C 12.832031 -13.566406 10.546875 -14.050781 8.734375 -14.59375 C 6.929688 -15.132812 5.367188 -16.097656 4.046875 -17.484375 C 2.734375 -18.867188 2.078125 -20.84375 2.078125 -23.40625 C 2.078125 -25.539062 2.691406 -27.4375 3.921875 -29.09375 C 5.160156 -30.75 6.960938 -32.035156 9.328125 -32.953125 C 11.703125 -33.878906 14.503906 -34.34375 17.734375 -34.34375 C 20.128906 -34.34375 22.507812 -34.082031 24.875 -33.5625 C 27.25 -33.039062 29.210938 -32.316406 30.765625 -31.390625 L 27.484375 -24.40625 C 24.515625 -26.082031 21.265625 -26.921875 17.734375 -26.921875 C 15.640625 -26.921875 14.066406 -26.625 13.015625 -26.03125 C 11.972656 -25.445312 11.453125 -24.695312 11.453125 -23.78125 C 11.453125 -22.726562 12.015625 -21.992188 13.140625 -21.578125 C 14.273438 -21.160156 16.082031 -20.757812 18.5625 -20.375 C 21.320312 -19.914062 23.582031 -19.421875 25.34375 -18.890625 C 27.113281 -18.367188 28.644531 -17.414062 29.9375 -16.03125 C 31.238281 -14.65625 31.890625 -12.726562 31.890625 -10.25 C 31.890625 -8.15625 31.257812 -6.289062 30 -4.65625 C 28.75 -3.019531 26.914062 -1.75 24.5 -0.84375 C 22.09375 0.0507812 19.234375 0.5 15.921875 0.5 Z M 15.921875 0.5 "/></g></g></g><g fill="#999999" fill-opacity="1"><g transform="translate(177.648567, 209.147435)"><g><path d="M 4.53125 -33.84375 L 14.34375 -33.84375 L 14.34375 0 L 4.53125 0 Z M 9.4375 -38.5625 C 7.632812 -38.5625 6.164062 -39.082031 5.03125 -40.125 C 3.90625 -41.175781 3.34375 -42.476562 3.34375 -44.03125 C 3.34375 -45.582031 3.90625 -46.878906 5.03125 -47.921875 C 6.164062 -48.972656 7.632812 -49.5 9.4375 -49.5 C 11.238281 -49.5 12.707031 -48.992188 13.84375 -47.984375 C 14.976562 -46.984375 15.546875 -45.726562 15.546875 -44.21875 C 15.546875 -42.582031 14.976562 -41.226562 13.84375 -40.15625 C 12.707031 -39.09375 11.238281 -38.5625 9.4375 -38.5625 Z M 9.4375 -38.5625 "/></g></g></g><g fill="#999999" fill-opacity="1"><g transform="translate(191.237204, 209.147435)"><g><path d="M 47.875 -34.34375 C 52.101562 -34.34375 55.46875 -33.09375 57.96875 -30.59375 C 60.46875 -28.101562 61.71875 -24.363281 61.71875 -19.375 L 61.71875 0 L 51.890625 0 L 51.890625 -17.859375 C 51.890625 -20.546875 51.332031 -22.550781 50.21875 -23.875 C 49.113281 -25.195312 47.535156 -25.859375 45.484375 -25.859375 C 43.171875 -25.859375 41.34375 -25.113281 40 -23.625 C 38.664062 -22.132812 38 -19.921875 38 -16.984375 L 38 0 L 28.1875 0 L 28.1875 -17.859375 C 28.1875 -23.191406 26.046875 -25.859375 21.765625 -25.859375 C 19.503906 -25.859375 17.703125 -25.113281 16.359375 -23.625 C 15.015625 -22.132812 14.34375 -19.921875 14.34375 -16.984375 L 14.34375 0 L 4.53125 0 L 4.53125 -33.84375 L 13.90625 -33.84375 L 13.90625 -29.9375 C 15.164062 -31.363281 16.707031 -32.453125 18.53125 -33.203125 C 20.351562 -33.960938 22.351562 -34.34375 24.53125 -34.34375 C 26.925781 -34.34375 29.085938 -33.867188 31.015625 -32.921875 C 32.941406 -31.984375 34.492188 -30.613281 35.671875 -28.8125 C 37.054688 -30.570312 38.804688 -31.929688 40.921875 -32.890625 C 43.035156 -33.859375 45.351562 -34.34375 47.875 -34.34375 Z M 47.875 -34.34375 "/></g></g></g></svg>