<svg xmlns="http://www.w3.org/2000/svg" width="100" zoomAndPan="magnify" viewBox="0 0 75 30" height="40" preserveAspectRatio="xMidYMid meet" fill="#4e4b66" xmlns:v="https://vecta.io/nano"><path d="M19.439 23.051c-1.262 0-2.387-.273-3.375-.828s-1.773-1.32-2.344-2.312c-.562-.988-.844-2.102-.844-3.344s.281-2.348.844-3.328c.57-.988 1.352-1.754 2.344-2.297.988-.551 2.113-.828 3.375-.828 1.094 0 2.07.215 2.938.641s1.547 1.055 2.047 1.875l-1.281.859c-.43-.625-.965-1.094-1.609-1.406a4.75 4.75 0 0 0-2.094-.469c-.93 0-1.758.203-2.484.609s-1.305.992-1.719 1.75c-.406.762-.609 1.625-.609 2.594 0 .98.203 1.844.609 2.594.414.75.988 1.336 1.719 1.75.727.406 1.555.609 2.484.609a4.85 4.85 0 0 0 2.094-.453c.645-.312 1.18-.781 1.609-1.406l1.281.875c-.5.824-1.187 1.449-2.062 1.875s-1.852.641-2.922.641zm0 0"/><path d="M29.144 23.051c-1.043 0-2.039-.148-2.984-.453-.937-.301-1.672-.676-2.203-1.125l.781-1.359c.531.43 1.195.777 2 1.047a8.14 8.14 0 0 0 2.516.391c1.164 0 2.023-.18 2.578-.547a1.72 1.72 0 0 0 .844-1.531c0-.469-.156-.832-.469-1.094-.305-.27-.688-.473-1.156-.609-.469-.145-1.09-.281-1.859-.406l-2.5-.594c-.625-.195-1.164-.535-1.609-1.016-.437-.488-.656-1.16-.656-2.016 0-1.062.441-1.93 1.328-2.609s2.117-1.016 3.703-1.016a9.4 9.4 0 0 1 2.453.328c.82.211 1.504.492 2.047.844l-.75 1.391c-1.055-.727-2.305-1.094-3.75-1.094-1.105 0-1.934.195-2.484.578s-.828.898-.828 1.531c0 .48.156.867.469 1.156s.703.508 1.172.641 1.113.277 1.938.422l2.438.594a3.46 3.46 0 0 1 1.563.984c.438.469.656 1.117.656 1.938 0 1.105-.465 1.984-1.391 2.641s-2.211.984-3.844.984zm6.352-12.844h1.719v12.719h-1.719zm.875-2.781a1.25 1.25 0 0 1-.906-.359 1.21 1.21 0 0 1-.359-.875c0-.32.117-.602.359-.844a1.23 1.23 0 0 1 .906-.375c.352 0 .648.121.891.359.238.23.359.508.359.828 0 .355-.121.656-.359.906-.242.242-.539.359-.891.359zm19.452 2.687c1.594 0 2.844.461 3.75 1.375.914.918 1.375 2.273 1.375 4.063v7.375h-1.719v-7.203c0-1.32-.32-2.328-.953-3.016-.637-.695-1.539-1.047-2.703-1.047-1.324 0-2.367.406-3.125 1.219-.75.813-1.125 1.938-1.125 3.375v6.672h-1.719v-7.203c0-1.32-.32-2.328-.953-3.016-.637-.695-1.543-1.047-2.719-1.047-1.312 0-2.355.406-3.125 1.219-.762.813-1.141 1.938-1.141 3.375v6.672h-1.719V10.207h1.656v2.313a4.53 4.53 0 0 1 1.875-1.781c.813-.414 1.738-.625 2.781-.625 1.063 0 1.984.227 2.766.672.789.449 1.379 1.117 1.766 2 .469-.832 1.141-1.484 2.016-1.953.875-.477 1.879-.719 3.016-.719zm0 0"/></svg>